<?xml version="1.0" standalone="no"?>
<!DOCTYPE svg PUBLIC "-//W3C//DTD SVG 20010904//EN"
 "http://www.w3.org/TR/2001/REC-SVG-20010904/DTD/svg10.dtd">
<svg version="1.0" xmlns="http://www.w3.org/2000/svg"
 width="410.000000pt" height="333.000000pt" viewBox="0 0 410.000000 333.000000"
 preserveAspectRatio="xMidYMid meet">

<g transform="translate(0.000000,333.000000) scale(0.100000,-0.100000)"
fill="#000000" stroke="none">
<path d="M1918 2428 c-343 -311 -463 -424 -466 -441 -2 -10 4 -30 13 -44 14
-21 23 -24 56 -21 l39 4 0 -189 0 -189 -32 28 c-18 15 -118 104 -222 198 -103
94 -197 174 -207 178 -37 14 -60 -3 -314 -241 -33 -31 -112 -103 -175 -161
-130 -117 -130 -117 -130 -146 0 -31 31 -54 73 -54 l37 0 0 -240 c0 -233 1
-240 22 -260 21 -19 33 -20 442 -20 273 0 435 -4 460 -11 22 -6 125 -63 230
-126 105 -64 203 -123 218 -132 27 -16 28 -18 28 -106 0 -111 12 -135 70 -135
58 0 70 24 70 137 l0 92 133 79 c72 43 179 105 237 138 l105 59 441 3 c424 3
442 4 463 23 20 19 21 28 21 262 l0 243 39 -4 c33 -3 42 0 56 22 10 15 15 35
11 49 -3 13 -121 129 -281 275 -233 212 -281 252 -307 252 -24 0 -57 -24 -176
-133 -81 -72 -184 -165 -229 -206 l-83 -73 0 59 c0 33 3 120 6 194 l7 134 38
-3 c31 -3 40 0 55 22 11 19 14 32 8 46 -11 23 -436 418 -552 513 -58 47 -77
39 -204 -75z m370 -261 l142 -130 0 -248 0 -249 -135 0 -135 0 0 118 c0 64 -4
122 -8 128 -13 21 -51 34 -94 34 -103 0 -118 -23 -118 -175 l0 -105 -120 0
-120 0 0 249 0 250 183 164 182 164 40 -35 c22 -20 104 -94 183 -165z m-1018
-548 l190 -171 0 -249 0 -249 -134 0 -134 0 -4 121 c-4 145 -7 149 -110 149
-101 0 -108 -10 -108 -155 l0 -115 -119 0 -118 0 -7 31 c-3 17 -6 133 -6 258
l1 226 177 162 c97 89 178 162 180 162 1 1 88 -76 192 -170z m1998 -29 l131
-115 0 -263 1 -263 -122 3 -123 3 -5 118 c-6 142 -9 147 -111 147 -61 0 -70
-3 -88 -26 -18 -23 -21 -41 -21 -135 l0 -109 -130 0 -130 0 1 253 0 252 112
97 c62 54 146 129 187 166 l75 69 46 -41 c26 -22 106 -93 177 -156z m-1278
-535 l0 -355 -87 55 c-49 30 -136 83 -194 117 l-106 62 -7 90 c-3 49 -6 153
-6 232 l0 143 48 4 c26 2 116 4 200 5 l152 2 0 -355z m540 248 c0 -60 3 -165
7 -234 l6 -126 -104 -58 c-57 -33 -149 -85 -204 -117 l-100 -58 -3 338 c-1
185 0 343 3 349 3 10 52 13 200 13 l195 0 0 -107z"/>
</g>
</svg>
